<svg xmlns="http://www.w3.org/2000/svg" viewBox="0 0 1916.11 408.56"><defs><style>.a{fill:#25382d}.b{fill:#bdc3bf}</style></defs><path class="a" d="M109.91 6.71v119.14H87.26L29.87 45.64c1 10.24 1.17 30 1.17 80.21H7.22V6.71h22.65l57.56 81.05c-1.18-10.4-1.18-30.2-1.18-81.05ZM196.71 81.89c0-14.1-10.23-24.16-24.33-24.16-13.93 0-24.33 10.06-24.33 24.16 0 13.93 10.4 24.16 24.33 24.16 14.1 0 24.33-10.23 24.33-24.16Zm-71.65 0c0-26.35 19.8-45.64 47.32-45.64s47.49 19.29 47.49 45.64c0 26.68-20 45.64-47.49 45.64s-47.32-19-47.32-45.64ZM255.82 49.33c4.54-8 12.42-13.08 26.35-11.41L282 58.4c-16.44-2-25.67 3.52-25.67 17.28v50.17H232.5V38.09H252l3.85 11.24ZM347.34 38.09v18.8h-20.3v68.96h-23.83V56.89h-14.26v-18.8h14.26V12.42h23.83v25.67h20.3zM442.18 74.67v51.18h-24V78.37c0-17-9.57-21.65-18.8-21.65-11.41 0-19.63 7.21-19.63 22.48v46.65h-23.82V0h23.83v50.34c5.54-8.89 14.43-14.09 27-14.09 18.46 0 35.4 11.57 35.4 38.42Z"/><path class="b" d="M31.55 244.3h16.78c21.31 0 36.24-12.42 36.24-37.59s-14.93-37.59-36.24-37.59H31.55v75.18Zm-24.33 22V147.14h41.11c38.09 0 60.58 26.18 60.58 59.57s-22.49 59.57-60.58 59.57ZM142.34 213.26H185c-.51-10.24-9.07-17.46-21-17.46s-20.81 7.22-21.65 17.46Zm66.79 16.61h-66.62c1.18 10.74 10.74 18.46 23 18.46 10.4 0 17.62-4.87 21.14-11.75l20.81 2.18c-4.7 16.62-21.64 29.2-42.12 29.2-27.18 0-46.65-18.12-46.65-45.31 0-26.34 18.8-46 45.31-46 26.68 0 46.31 17.95 45.14 53.19ZM308.05 215.1v51.18h-24.17v-47.49c0-16.94-9.39-21.64-18.62-21.64-11.58 0-19.64 7.21-19.64 22.48v46.65h-24.16v-87.76h20.14l3.69 12.59c5.54-9.07 14.43-14.43 27.35-14.43 18.46 0 35.41 11.57 35.41 38.42ZM374.09 178.52v18.79h-20.3v68.97h-23.83v-68.97h-14.27v-18.79h14.27v-25.67h23.83v25.67h20.3zM451 222.32c0-13.93-10.06-24-24.16-24-14.27 0-24.5 9.9-24.5 24 0 14.26 10.23 24.33 24.5 24.33 14.1 0 24.16-10.24 24.16-24.33Zm4-43.8h20.14v87.76h-24v-15.1c-4.36 10.4-15.94 16.78-30.54 16.78-26.68 0-42.29-20.81-42.29-45.81 0-26 16.45-45.47 43.63-45.47 11.08 0 22.66 5 29.2 14.76v.5l3.86-13.42ZM516.12 140.43v125.85h-23.83V140.43h23.83zM0 368.62h25c.34 12.42 8.9 19.13 20 19.13 10.24 0 16.28-5.2 16.28-12.42 0-21.31-57.06-16.95-57.06-55.88 0-19.8 15.78-33.56 38.94-33.56 24.33 0 40.27 15.27 40.77 37.76l-24.5.67c-.5-11.41-6.71-17.79-15.94-17.79-8.22 0-14.26 4.53-14.26 11.92 0 24 57.72 15.77 57.72 55.37 0 21.65-18.29 34.57-42.12 34.57-29.23 0-44.5-19.47-44.83-39.77ZM151.07 318.95v18.79h-20.31v68.97h-23.82v-68.97H92.67v-18.79h14.27v-25.67h23.82v25.67h20.31zM221.46 319h24v87.76h-20.14L222 393.79c-5.37 9.23-14.6 14.77-27.52 14.77-18.29 0-35.24-11.58-35.24-38.43V319H183v47.49c0 16.95 9.56 21.65 18.79 21.65 11.41 0 19.63-7.22 19.63-22.32V319ZM329.79 362.75c0-13.93-10.07-24-24.16-24-14.27 0-24.5 9.9-24.5 24 0 14.26 10.23 24.33 24.5 24.33 14.09 0 24.16-10.24 24.16-24.33Zm.17-81.89h23.83v125.85H330v-15.1c-4.4 10.39-16 16.78-30.58 16.78-26.68 0-42.29-20.81-42.29-45.81 0-26 16.45-45.48 43.63-45.48 11.08 0 22.65 5 29.2 14.77v-51ZM394.73 319v87.76H370.9V319Zm-25.34-22.2a13.43 13.43 0 1 1 13.42 13.42 13.35 13.35 0 0 1-13.42-13.42ZM478.23 362.75c0-14.1-10.24-24.17-24.34-24.17-13.92 0-24.33 10.07-24.33 24.17 0 13.92 10.41 24.16 24.33 24.16 14.1 0 24.34-10.24 24.34-24.16Zm-71.66 0c0-26.35 19.8-45.65 47.32-45.65s47.49 19.3 47.49 45.65c0 26.68-20 45.64-47.49 45.64s-47.32-19-47.32-45.64Z"/><path class="a" d="M916.11 6.71h-200v400h400v-200c0-110.45-89.54-200-200-200Z"/><path class="b" d="M1316.11 6.71h-200v400h200c110.46 0 200-89.54 200-200s-89.54-200-200-200ZM1716.11 6.71c-110.45 0-200 89.55-200 200v200h200c110.46 0 200-89.54 200-200v-200Z"/></svg>